<svg xmlns="http://www.w3.org/2000/svg" viewBox="0 0 490.244 617.959">
  <path id="Path_236" data-name="Path 236" d="M489.348,473.216a110.616,110.616,0,0,0-2.465-17.029h-6.274A235.217,235.217,0,0,1,483.074,488c0,28.68-5.6,51.534-16.58,68.338-10.531,16.8-23.526,25.319-38.986,25.319-18.6,0-36.3-11.2-53.326-33.385-4.257-6.05-9.635-17.7-15.908-35.626-5.826-17.7-11.427-35.177-16.58-51.982q48.061-22.854,80.214-57.808h0a203.311,203.311,0,0,0,17.477-21.51q40.667-57.135,40.555-135.781c0-76.181-26.215-137.349-78.645-183.954C354.912,20.614,301.361,0,239.969,0Q150.232,0,78.645,65.2,0,137.125,0,245.57,0,339,53.326,402.861h0a251.25,251.25,0,0,0,25.319,25.991q69.907,62.177,161.323,62.289a109.333,109.333,0,0,0,23.75-2.913c0,31.593,6.946,58.032,20.614,79.317q20.5,32.6,56.463,43.692c15.46,4.481,29.352,6.722,42.123,6.722q50.077,0,78.645-36.3c19.045-23.75,28.68-54,28.68-90.52C490.02,485.539,489.8,479.713,489.348,473.216ZM271.561,440.5a392.46,392.46,0,0,0-7.842,40.779c-4.033,1.344-26.439,5.153-42.123,1.568a55.059,55.059,0,0,1-30.92-19.941,50.018,50.018,0,0,1-10.307-30.472,54.608,54.608,0,0,1,8.29-29.576h0a76.913,76.913,0,0,1,5.377-7.394c8.962-10.979,20.165-15.46,33.385-16.356,17.477-1.12,26.663,3.361,34.057,10.307a35.568,35.568,0,0,1,9.411,13.22h0a48.261,48.261,0,0,1,3.585,18.6A128.441,128.441,0,0,1,271.561,440.5Zm59.6-5.6a95.03,95.03,0,0,0-15.012-32.265h0c-16.356-22.406-41.9-35.177-73.268-34.729-33.161.448-49.517,15.684-58.032,27.335a65.063,65.063,0,0,0-4.481,7.394h0a62.247,62.247,0,0,0-7.394,29.576,56.4,56.4,0,0,0,4.705,22.182c3.137,6.946,8.29,13,15.012,18.6-27.111-13.892-47.725-37.418-62.065-70.579h0c-1.344-3.137-2.689-6.274-3.809-9.635C113.15,354.239,106.2,305.17,106.2,246.018c0-79.99,10.307-140.262,30.92-180.145C158.635,25.991,192.692,6.05,239.969,6.05q67.554,0,100.827,61.617c22.854,40.555,34.057,99.931,34.057,177.9,0,47.949-3.809,86.935-11.2,117.184a205.523,205.523,0,0,1-13,40.107h0A145.822,145.822,0,0,1,331.161,434.9Z"/>
</svg>
